<svg id="Layer_1" height="512" viewBox="0 0 128 128" width="512" xmlns="http://www.w3.org/2000/svg" data-name="Layer 1"><path d="m102.833 30.645v-8.99a4.739 4.739 0 0 0 -4.733-4.734h-9.939a4.739 4.739 0 0 0 -4.735 4.734v8.436h-11.19v-2.385a1.751 1.751 0 0 0 -1.75-1.75h-12.972a1.751 1.751 0 0 0 -1.75 1.75v2.385h-11.19v-8.436a4.739 4.739 0 0 0 -4.735-4.734h-9.939a4.739 4.739 0 0 0 -4.734 4.734v8.99 7.078 5.613a4.739 4.739 0 0 0 4.734 4.736h9.938a4.739 4.739 0 0 0 4.735-4.734v-5.613-4.134h11.19v2.386a1.751 1.751 0 0 0 1.75 1.75h1.821v18.219a9.309 9.309 0 0 0 0 16.108v18.175c0 .015.005.029.005.044h-1.825a1.751 1.751 0 0 0 -1.75 1.75v2.386h-11.19v-9.745a4.739 4.739 0 0 0 -4.735-4.734h-9.939a4.739 4.739 0 0 0 -4.734 4.734v16.069 5.613a4.739 4.739 0 0 0 4.734 4.734h9.938a4.739 4.739 0 0 0 4.735-4.734v-5.613-2.824h11.19v2.385a1.751 1.751 0 0 0 1.75 1.75h12.973a1.751 1.751 0 0 0 1.75-1.75v-2.385h11.19v2.824 5.613a4.739 4.739 0 0 0 4.735 4.734h9.939a4.739 4.739 0 0 0 4.734-4.734v-5.613-16.069a4.739 4.739 0 0 0 -4.734-4.734h-9.939a4.739 4.739 0 0 0 -4.735 4.734v9.745h-11.19v-2.386a1.751 1.751 0 0 0 -1.75-1.75h-1.826c0-.015.005-.029.005-.044v-18.175a9.309 9.309 0 0 0 0-16.108v-18.219h1.821a1.751 1.751 0 0 0 1.75-1.75v-2.386h11.19v4.133 5.613a4.739 4.739 0 0 0 4.735 4.734h9.939a4.739 4.739 0 0 0 4.734-4.734v-5.612-7.079zm-62.994 13.927h-9.939a1.235 1.235 0 0 1 -1.234-1.234v-2.238l1.334.92a1.75 1.75 0 0 0 2-2.875l-3.328-2.312v-2.817l1.328.924a1.75 1.75 0 1 0 2-2.875l-3.328-2.311v-2.818l1.328.924a1.75 1.75 0 1 0 2-2.875l-3.328-2.311v-1.019a1.236 1.236 0 0 1 1.228-1.234h9.938a1.236 1.236 0 0 1 1.235 1.234v1.019l-3.328 2.311a1.75 1.75 0 1 0 2 2.875l1.331-.924v2.818l-3.328 2.311a1.75 1.75 0 1 0 2 2.875l1.331-.924v2.817l-3.328 2.312a1.75 1.75 0 1 0 2 2.875l1.331-.924v2.242a1.236 1.236 0 0 1 -1.243 1.234zm0 63.009h-9.939a1.236 1.236 0 0 1 -1.234-1.234v-2.247l1.331.925a1.75 1.75 0 0 0 2-2.875l-3.328-2.312v-2.813l1.331.924a1.75 1.75 0 0 0 2-2.875l-3.328-2.311v-2.818l1.328.924a1.75 1.75 0 0 0 2-2.875l-3.328-2.311v-1.019a1.235 1.235 0 0 1 1.228-1.234h9.938a1.236 1.236 0 0 1 1.235 1.234v1.019l-3.328 2.311a1.75 1.75 0 1 0 2 2.875l1.331-.924v2.818l-3.328 2.311a1.75 1.75 0 1 0 2 2.875l1.331-.924v2.817l-3.328 2.312a1.75 1.75 0 0 0 2 2.875l1.331-.925v2.243a1.236 1.236 0 0 1 -1.243 1.234zm48.322-24.151h9.939a1.235 1.235 0 0 1 1.234 1.234v1.019l-3.328 2.311a1.75 1.75 0 1 0 2 2.875l1.331-.924v2.818l-3.328 2.311a1.75 1.75 0 1 0 2 2.875l1.331-.924v2.817l-3.328 2.312a1.75 1.75 0 0 0 2 2.875l1.331-.925v2.243a1.236 1.236 0 0 1 -1.234 1.234h-9.948a1.236 1.236 0 0 1 -1.235-1.234v-2.247l1.331.925a1.75 1.75 0 0 0 2-2.875l-3.328-2.312v-2.813l1.331.924a1.75 1.75 0 0 0 2-2.875l-3.328-2.311v-2.818l1.331.924a1.75 1.75 0 0 0 2-2.875l-3.328-2.311v-1.019a1.236 1.236 0 0 1 1.226-1.234zm-19.425 15.114h-9.472v-4.771h9.472zm-2.5-39.9a5.806 5.806 0 0 1 0 10.714 1.75 1.75 0 0 0 -1.074 1.615v19.256.044h-2.331c0-.015 0-.029 0-.044v-19.257a1.75 1.75 0 0 0 -1.074-1.615 5.806 5.806 0 0 1 0-10.714 1.75 1.75 0 0 0 1.074-1.615v-19.3h2.33v19.3a1.75 1.75 0 0 0 1.078 1.615zm2.5-24.416h-9.472v-4.772h9.472zm29.364 10.344h-9.939a1.236 1.236 0 0 1 -1.235-1.234v-2.238l1.331.924a1.75 1.75 0 0 0 2-2.875l-3.328-2.312v-2.821l1.331.924a1.75 1.75 0 0 0 2-2.875l-3.328-2.311v-2.818l1.331.924a1.75 1.75 0 0 0 2-2.875l-3.328-2.311v-1.019a1.236 1.236 0 0 1 1.235-1.234h9.93a1.236 1.236 0 0 1 1.234 1.234v1.019l-3.328 2.311a1.75 1.75 0 1 0 2 2.875l1.331-.924v2.818l-3.328 2.311a1.75 1.75 0 1 0 2 2.875l1.331-.924v2.817l-3.328 2.312a1.75 1.75 0 1 0 2 2.875l1.331-.924v2.242a1.235 1.235 0 0 1 -1.243 1.234z"/></svg>